<svg width="1280" height="521" viewBox="0 0 1280 521" fill="none" xmlns="http://www.w3.org/2000/svg">
<mask id="mask0_12_967" style="mask-type:alpha" maskUnits="userSpaceOnUse" x="-15" y="0" width="1310" height="521">
<rect x="-14.8282" y="104.704" width="1280" height="417" transform="rotate(-4.66174 -14.8282 104.704)" fill="url(#paint0_linear_12_967)"/>
</mask>
<g mask="url(#mask0_12_967)">
<g filter="url(#filter0_dd_12_967)">
<path d="M985.964 137.306L986.968 140.474L988.01 143.868L989.032 147.293L990.032 150.777L990.995 154.215L991.915 157.637L992.782 161L993.609 164.329L994.388 167.617L995.121 170.86L995.815 174.069L996.455 177.178L997.055 180.203L997.586 183.018L998.064 185.656L998.468 188.009L998.829 190.298L999.192 192.706L999.545 195.224L999.906 197.936L1000.25 200.705L1000.59 203.569L1000.89 206.424L1001.17 209.311L1001.42 212.19L1001.64 215.101L1001.83 218.029L1002 221.012L1002.13 224.038L1002.25 227.13L1002.34 230.231L1002.41 233.349L1002.46 236.357L1002.49 239.276L1002.48 241.969L1002.45 244.627L1002.38 247.382L1002.28 250.289L1002.13 253.516L1001.94 256.921L1001.7 260.529L1001.4 264.228L1001.06 268.028L1000.68 271.891L1000.26 275.783L999.793 279.721L999.308 283.6L998.797 287.428L998.301 291.02L997.803 294.417L997.332 297.482L996.819 300.588L996.211 304.107L995.524 307.883L994.743 311.988L993.9 316.208L992.98 320.583L992.009 324.978L990.968 329.438L989.88 333.907L988.727 338.41L987.512 342.937L986.246 347.484L984.924 352.08L983.558 356.679L982.133 361.34L980.681 365.992L979.164 370.72L977.611 375.425L975.976 380.226L974.295 385.009L972.502 389.891L970.639 394.741L968.65 399.658L966.631 404.424L964.568 409.077L962.628 413.286L960.828 417.019L959.352 419.979L958.052 422.48L956.69 424.997L955.156 427.763L953.518 430.621L951.607 433.85L949.287 437.682L946.697 441.824L943.809 446.324L940.805 450.864L937.634 455.511L934.435 460.045L931.118 464.603L927.796 469.011L924.367 473.432L920.937 477.708L917.388 482L913.848 486.161L910.188 490.324L906.534 494.367L902.763 498.408L899.001 502.324L895.122 506.24L891.27 510.018L887.317 513.785L883.431 517.383L879.507 520.919L875.74 524.215L872.033 527.382L868.545 530.276L865.155 533.012L861.897 535.562L858.562 538.087L854.88 540.776L851.029 543.502L846.919 546.305L842.765 549.029L838.48 551.719L834.231 554.279L829.919 556.766L825.663 559.12L821.368 561.399L817.143 563.563L812.898 565.685L808.722 567.71L804.553 569.702L800.458 571.631L796.384 573.536L792.38 575.39L788.409 577.223L784.495 579.028L780.628 580.811L776.793 582.573L773.019 584.303L769.288 586.008L765.675 587.646L762.155 589.224L758.883 590.674L755.811 592.002L753.065 593.157L750.378 594.243L747.519 595.344L744.519 596.449L741.282 597.588L737.97 598.692L734.556 599.771L731.159 600.789L727.761 601.751L724.396 602.65L721.063 603.486L717.76 604.279L714.513 605.014L711.296 605.714L708.195 606.359L705.187 606.958L702.414 607.486L699.838 607.961L697.56 608.362L695.324 608.73L692.861 609.12L690.267 609.509L687.494 609.906L684.675 610.292L681.795 610.66L678.925 611.009L676.048 611.332L673.181 611.628L670.29 611.904L667.382 612.158L664.423 612.383L661.413 612.586L658.331 612.769L655.201 612.926L652.007 613.061L648.839 613.165L645.692 613.244L642.727 613.298L639.905 613.32L637.321 613.323L634.69 613.3L631.701 613.243L628.477 613.153L624.976 613.029L621.342 612.868L617.573 612.661L613.74 612.415L609.833 612.119L605.858 611.772L601.845 611.38L597.78 610.936L593.794 610.455L589.896 609.952L586.343 609.458L583.152 608.987L580.519 608.574L578.105 608.166L575.44 607.678L572.297 607.06L568.747 606.319L564.72 605.43L560.475 604.431L556.014 603.311L551.509 602.105L546.935 600.793L542.362 599.398L537.774 597.907L533.168 596.331L528.555 594.674L523.882 592.923L519.208 591.11L514.445 589.206L509.696 587.26L504.879 585.248L500.187 583.268L495.606 581.304L491.474 579.521L487.829 577.937L484.987 576.688L482.618 575.639L480.22 574.56L477.464 573.307L474.5 571.941L471.106 570.348L467.061 568.403L462.697 566.25L457.991 563.854L453.262 561.364L448.427 558.713L443.715 556.015L438.969 553.17L434.369 550.282L429.746 547.251L425.263 544.178L420.76 540.957L416.382 537.711L411.985 534.324L407.722 530.918L403.433 527.387L399.28 523.853L395.116 520.199L391.084 516.546L387.038 512.778L383.128 509.021L379.221 505.148L375.45 501.301L371.694 497.363L368.125 493.507L364.624 489.627L361.374 485.924L358.26 482.274L355.382 478.825L352.649 475.451L350.047 472.16L347.457 468.796L344.699 465.109L341.903 461.279L339.026 457.228L336.207 453.156L333.399 448.99L330.699 444.868L328.056 440.703L325.527 436.601L323.055 432.471L320.689 428.396L318.385 424.304L316.167 420.258L314.016 416.207L311.947 412.19L309.945 408.182L308.013 404.191L306.146 400.221L304.338 396.246L302.6 392.303L300.91 388.345L299.3 384.447L297.755 380.578L296.324 376.909L295.015 373.448L293.913 370.467L292.998 367.943L292.309 365.992L291.786 364.481L291.291 362.994L290.667 361.064L289.83 358.439L288.883 355.383L287.848 351.981L286.816 348.477L285.806 344.916L284.838 341.412L283.925 337.947L283.063 334.546L282.25 331.201L281.481 327.893L280.758 324.646L280.072 321.429L279.432 318.328L278.841 315.324L278.314 312.554L277.847 309.975L277.451 307.704L277.086 305.46L276.7 302.998L276.319 300.407L275.922 297.631L275.541 294.812L275.178 291.931L274.838 289.064L274.523 286.184L274.235 283.312L273.971 280.42L273.736 277.503L273.53 274.535L273.35 271.519L273.202 268.426L273.084 265.305L272.993 262.129L272.932 259.006L272.897 255.934L272.893 253.054L272.909 250.281L272.946 247.63L273.01 244.898L273.103 241.823L273.226 238.532L273.386 234.994L273.575 231.342L273.799 227.574L274.059 223.747L274.356 219.861L274.696 215.915L275.076 211.94L275.503 207.908L275.961 203.93L276.447 199.984L276.945 196.268L277.457 192.724L277.951 189.526L278.489 186.309L279.137 182.735L279.862 178.915L280.706 174.751L281.625 170.458L282.632 165.997L283.703 161.5L284.855 156.933L286.067 152.369L287.362 147.764L288.719 143.142L290.153 138.504L291.664 133.832L293.241 129.155L294.908 124.43L296.647 119.717L298.483 114.94L300.391 110.183L302.412 105.35L304.5 100.552L306.707 95.6887L308.941 90.9315L311.237 86.2066L313.456 81.7839L315.603 77.6181L317.527 73.9913L319.339 70.6846L321.11 67.5236L322.838 64.5347L324.761 61.3088L327.071 57.5379L329.639 53.446L332.508 48.9923L335.503 44.4795L338.668 39.8478L341.856 35.3191L345.167 30.7691L348.471 26.3732L351.875 21.9727L355.274 17.7263L358.78 13.4673L362.303 9.3193L365.997 5.116L369.808 0.929234L373.926 -3.45506L378.301 -7.94666L383.049 -12.6825L387.86 -17.3374L392.35 -21.5576L396.61 -25.4404L400.497 -28.8694L404.2 -32.0396L407.638 -34.9072L410.981 -37.6134L414.235 -40.1811L417.574 -42.7446L421.243 -45.4927L425.066 -48.2833L429.114 -51.1674L433.189 -53.9937L437.362 -56.8132L441.487 -59.5201L445.655 -62.1707L449.764 -64.7114L453.894 -67.1865L457.975 -69.5639L462.069 -71.875L466.121 -74.0965L470.168 -76.2538L474.195 -78.3309L478.2 -80.3425L482.193 -82.282L486.162 -84.152L490.139 -85.9664L494.084 -87.7109L498.044 -89.408L501.947 -91.0216L505.817 -92.5801L509.487 -94.0173L512.95 -95.3325L515.928 -96.4355L518.453 -97.3551L520.408 -98.0517L521.916 -98.573L523.407 -99.0741L525.338 -99.7013L527.962 -100.543L531.017 -101.491L534.423 -102.536L537.927 -103.574L541.488 -104.59L544.99 -105.56L548.459 -106.482L551.857 -107.346L555.206 -108.162L558.51 -108.939L561.766 -109.668L564.979 -110.364L568.081 -111.001L571.084 -111.604L573.855 -112.128L576.43 -112.603L578.709 -113.004L580.948 -113.376L583.407 -113.762L586.001 -114.151L588.774 -114.548L591.593 -114.934L594.476 -115.306L597.343 -115.651L600.22 -115.974L603.09 -116.274L605.978 -116.553L608.886 -116.8L611.849 -117.029L614.855 -117.236L617.941 -117.415L621.07 -117.572L624.262 -117.703L627.429 -117.807L630.576 -117.886L633.541 -117.94L636.367 -117.966L638.951 -117.969L641.578 -117.942L644.567 -117.885L647.788 -117.798L651.292 -117.671L654.919 -117.509L658.687 -117.31L662.524 -117.061L666.439 -116.765L670.425 -116.415L674.468 -116.018L678.575 -115.573L682.617 -115.094L686.545 -114.586L690.075 -114.105L693.11 -113.669L695.342 -113.34L697.065 -113.062L698.811 -112.764L701.069 -112.358L703.989 -111.812L707.444 -111.131L711.458 -110.308L715.723 -109.389L720.22 -108.37L724.753 -107.286L729.36 -106.119L733.953 -104.894L738.578 -103.593L743.197 -102.228L747.841 -100.787L752.506 -99.2721L757.185 -97.6835L761.9 -96.0081L766.614 -94.2651L771.384 -92.4182L776.133 -90.5059L780.964 -88.4766L785.757 -86.3882L790.617 -84.1816L795.378 -81.9406L800.11 -79.6337L804.568 -77.3939L808.777 -75.2124L812.479 -73.2475L815.848 -71.4051L819.014 -69.6245L822 -67.8928L825.207 -65.9808L828.906 -63.7124L832.918 -61.1924L837.308 -58.3591L841.776 -55.3898L846.386 -52.2301L850.902 -49.04L855.443 -45.7173L859.846 -42.3943L864.254 -38.9557L868.517 -35.5089L872.789 -31.9504L876.926 -28.3884L881.062 -24.7101L885.07 -21.0288L889.084 -17.2318L892.967 -13.4428L896.851 -9.53409L900.603 -5.64812L904.344 -1.66015L907.922 2.25876L911.443 6.21241L914.729 9.99441L917.86 13.6993L920.695 17.1326L923.413 20.5156L926.086 23.9286L928.736 27.3997L931.437 31.0239L934.127 34.7501L936.911 38.7157L939.65 42.7188L942.404 46.8667L945.05 50.9785L947.662 55.1644L950.151 59.2817L952.595 63.4364L954.932 67.5287L957.211 71.6334L959.407 75.6887L961.55 79.7334L963.616 83.7469L965.623 87.7391L967.569 91.7064L969.448 95.6454L971.267 99.5744L973.016 103.472L974.716 107.369L976.334 111.21L977.898 115.048L979.362 118.759L980.751 122.371L981.986 125.7L983.103 128.818L984.063 131.575L984.979 134.293L985.964 137.306Z" stroke="white" stroke-width="0.5" stroke-linecap="round" stroke-linejoin="round" shape-rendering="crispEdges"/>
</g>
<g filter="url(#filter1_dd_12_967)">
<path d="M1057.3 114.665L1058.51 118.483L1059.77 122.573L1061 126.701L1062.2 130.898L1063.36 135.041L1064.47 139.165L1065.52 143.218L1066.51 147.23L1067.45 151.192L1068.33 155.101L1069.17 158.968L1069.94 162.714L1070.66 166.36L1071.3 169.751L1071.88 172.931L1072.37 175.766L1072.8 178.524L1073.24 181.426L1073.67 184.46L1074.1 187.728L1074.52 191.066L1074.92 194.517L1075.29 197.958L1075.63 201.437L1075.92 204.906L1076.19 208.414L1076.42 211.942L1076.62 215.537L1076.78 219.184L1076.92 222.91L1077.03 226.647L1077.12 230.404L1077.18 234.028L1077.21 237.546L1077.21 240.792L1077.17 243.995L1077.09 247.314L1076.96 250.818L1076.78 254.706L1076.55 258.81L1076.26 263.158L1075.9 267.615L1075.49 272.194L1075.03 276.849L1074.52 281.54L1073.96 286.285L1073.38 290.959L1072.76 295.573L1072.17 299.901L1071.57 303.995L1071 307.689L1070.38 311.432L1069.65 315.672L1068.82 320.222L1067.88 325.169L1066.86 330.254L1065.75 335.527L1064.58 340.823L1063.33 346.198L1062.02 351.583L1060.63 357.01L1059.16 362.465L1057.64 367.944L1056.05 373.482L1054.4 379.025L1052.68 384.642L1050.93 390.247L1049.1 395.945L1047.23 401.615L1045.26 407.401L1043.24 413.165L1041.08 419.048L1038.83 424.893L1036.44 430.818L1034 436.561L1031.52 442.168L1029.18 447.24L1027.01 451.738L1025.23 455.306L1023.66 458.319L1022.02 461.352L1020.17 464.686L1018.2 468.13L1015.9 472.021L1013.1 476.639L1009.98 481.631L1006.5 487.054L1002.88 492.524L999.058 498.125L995.203 503.588L991.206 509.08L987.203 514.393L983.07 519.721L978.937 524.873L974.661 530.046L970.395 535.059L965.984 540.076L961.58 544.948L957.036 549.818L952.503 554.538L947.829 559.256L943.187 563.809L938.422 568.349L933.74 572.684L929.012 576.946L924.472 580.917L920.005 584.734L915.801 588.221L911.717 591.519L907.79 594.591L903.771 597.635L899.335 600.875L894.694 604.16L889.741 607.537L884.735 610.82L879.572 614.062L874.45 617.147L869.254 620.143L864.126 622.98L858.95 625.726L853.858 628.335L848.743 630.891L843.71 633.332L838.687 635.732L833.752 638.057L828.842 640.352L824.018 642.587L819.232 644.795L814.515 646.971L809.855 649.12L805.234 651.243L800.686 653.328L796.19 655.382L791.836 657.356L787.594 659.258L783.651 661.005L779.949 662.605L776.64 663.997L773.402 665.306L769.957 666.633L766.341 667.964L762.44 669.337L758.45 670.668L754.335 671.968L750.242 673.194L746.147 674.353L742.092 675.436L738.075 676.444L734.095 677.399L730.182 678.286L726.305 679.129L722.568 679.906L718.944 680.629L715.602 681.265L712.498 681.837L709.752 682.32L707.058 682.763L704.09 683.233L700.964 683.703L697.623 684.181L694.226 684.646L690.755 685.09L687.296 685.51L683.83 685.9L680.374 686.256L676.89 686.588L673.386 686.895L669.82 687.166L666.193 687.411L662.479 687.631L658.707 687.82L654.858 687.983L651.041 688.108L647.248 688.204L643.675 688.268L640.274 688.295L637.161 688.299L633.99 688.271L630.388 688.202L626.502 688.094L622.284 687.945L617.904 687.75L613.362 687.501L608.744 687.205L604.035 686.848L599.245 686.43L594.41 685.957L589.51 685.422L584.707 684.842L580.01 684.236L575.728 683.641L571.883 683.073L568.711 682.576L565.801 682.085L562.589 681.496L558.802 680.752L554.524 679.858L549.671 678.787L544.556 677.583L539.18 676.234L533.751 674.781L528.239 673.199L522.729 671.518L517.2 669.721L511.649 667.822L506.09 665.825L500.459 663.716L494.826 661.53L489.086 659.236L483.364 656.891L477.558 654.467L471.905 652.08L466.384 649.714L461.404 647.565L457.012 645.656L453.587 644.151L450.733 642.887L447.843 641.586L444.521 640.077L440.95 638.43L436.859 636.51L431.986 634.168L426.726 631.572L421.055 628.686L415.357 625.684L409.53 622.49L403.852 619.238L398.132 615.81L392.589 612.33L387.019 608.677L381.616 604.974L376.189 601.093L370.913 597.181L365.615 593.099L360.478 588.995L355.31 584.74L350.304 580.481L345.287 576.078L340.427 571.676L335.552 567.135L330.841 562.608L326.132 557.94L321.587 553.305L317.061 548.559L312.76 543.912L308.542 539.236L304.626 534.774L300.872 530.376L297.405 526.22L294.112 522.153L290.975 518.187L287.854 514.134L284.531 509.691L281.162 505.075L277.694 500.193L274.297 495.287L270.913 490.266L267.66 485.299L264.475 480.28L261.427 475.336L258.448 470.359L255.596 465.448L252.82 460.518L250.148 455.642L247.556 450.76L245.062 445.919L242.65 441.09L240.321 436.281L238.071 431.496L235.893 426.706L233.799 421.955L231.762 417.184L229.821 412.488L227.96 407.825L226.236 403.404L224.658 399.232L223.33 395.64L222.227 392.599L221.397 390.248L220.767 388.427L220.171 386.634L219.419 384.309L218.41 381.146L217.269 377.462L216.022 373.363L214.778 369.141L213.561 364.85L212.394 360.627L211.294 356.452L210.255 352.353L209.275 348.322L208.349 344.336L207.478 340.423L206.65 336.546L205.879 332.809L205.167 329.189L204.532 325.852L203.97 322.743L203.492 320.006L203.052 317.303L202.587 314.335L202.128 311.213L201.65 307.868L201.191 304.471L200.753 301L200.343 297.544L199.963 294.073L199.616 290.613L199.299 287.127L199.015 283.612L198.767 280.035L198.55 276.401L198.371 272.674L198.23 268.913L198.12 265.085L198.046 261.322L198.005 257.62L198 254.15L198.019 250.808L198.063 247.613L198.14 244.321L198.252 240.615L198.401 236.649L198.594 232.386L198.821 227.984L199.091 223.444L199.405 218.833L199.762 214.15L200.173 209.395L200.63 204.604L201.145 199.746L201.696 194.952L202.283 190.196L202.883 185.719L203.499 181.448L204.095 177.594L204.744 173.717L205.524 169.41L206.398 164.807L207.415 159.79L208.522 154.616L209.736 149.24L211.027 143.821L212.415 138.317L213.875 132.817L215.436 127.268L217.071 121.699L218.799 116.108L220.62 110.479L222.52 104.843L224.529 99.1482L226.625 93.469L228.837 87.7126L231.136 81.9806L233.572 76.156L236.089 70.3745L238.747 64.5135L241.439 58.7807L244.206 53.0868L246.881 47.7572L249.468 42.7371L251.787 38.3666L253.97 34.3818L256.104 30.5726L258.187 26.9707L260.504 23.0832L263.288 18.539L266.383 13.608L269.84 8.24103L273.449 2.8028L277.263 -2.7787L281.105 -8.23614L285.094 -13.7192L289.076 -19.0166L293.179 -24.3195L297.274 -29.4367L301.499 -34.569L305.744 -39.5677L310.196 -44.6329L314.789 -49.6783L319.751 -54.9616L325.023 -60.3744L330.745 -66.0814L336.543 -71.6908L341.954 -76.7765L347.086 -81.4555L351.771 -85.5876L356.233 -89.408L360.377 -92.8637L364.406 -96.1248L368.326 -99.219L372.35 -102.308L376.772 -105.62L381.379 -108.983L386.257 -112.458L391.167 -115.864L396.196 -119.262L401.167 -122.524L406.19 -125.718L411.142 -128.78L416.118 -131.762L421.036 -134.627L425.969 -137.412L430.853 -140.089L435.729 -142.689L440.582 -145.192L445.409 -147.616L450.221 -149.953L455.003 -152.207L459.795 -154.394L464.549 -156.496L469.322 -158.541L474.025 -160.485L478.689 -162.363L483.112 -164.095L487.284 -165.68L490.873 -167.01L493.916 -168.118L496.272 -168.957L498.089 -169.585L499.886 -170.189L502.213 -170.945L505.376 -171.959L509.056 -173.102L513.161 -174.361L517.383 -175.611L521.676 -176.836L525.896 -178.005L530.075 -179.116L534.17 -180.158L538.207 -181.14L542.188 -182.078L546.111 -182.956L549.983 -183.794L553.721 -184.562L557.341 -185.289L560.679 -185.921L563.783 -186.492L566.528 -186.976L569.227 -187.423L572.191 -187.889L575.316 -188.358L578.658 -188.837L582.055 -189.301L585.53 -189.75L588.985 -190.166L592.451 -190.555L595.91 -190.917L599.39 -191.253L602.895 -191.55L606.465 -191.826L610.087 -192.075L613.806 -192.291L617.577 -192.48L621.423 -192.639L625.24 -192.764L629.032 -192.859L632.606 -192.923L636.011 -192.956L639.124 -192.959L642.29 -192.927L645.893 -192.858L649.773 -192.753L653.996 -192.6L658.367 -192.405L662.909 -192.165L667.532 -191.864L672.249 -191.508L677.053 -191.087L681.926 -190.608L686.874 -190.072L691.745 -189.494L696.479 -188.882L700.732 -188.302L704.389 -187.777L707.08 -187.381L709.156 -187.046L711.261 -186.687L713.981 -186.198L717.5 -185.54L721.664 -184.718L726.501 -183.726L731.64 -182.62L737.06 -181.391L742.522 -180.086L748.074 -178.679L753.609 -177.203L759.182 -175.635L764.749 -173.99L770.345 -172.253L775.967 -170.428L781.605 -168.513L787.287 -166.494L792.967 -164.394L798.716 -162.168L804.439 -159.864L810.26 -157.419L816.036 -154.902L821.892 -152.243L827.63 -149.542L833.333 -146.762L838.705 -144.063L843.777 -141.434L848.238 -139.066L852.298 -136.846L856.113 -134.7L859.712 -132.614L863.576 -130.309L868.034 -127.576L872.869 -124.539L878.158 -121.125L883.542 -117.547L889.098 -113.739L894.54 -109.895L900.012 -105.89L905.318 -101.886L910.63 -97.7424L915.767 -93.5887L920.915 -89.3005L925.901 -85.008L930.885 -80.5754L935.715 -76.1392L940.553 -71.5636L945.231 -66.9976L949.912 -62.2873L954.433 -57.6044L958.941 -52.7987L963.253 -48.076L967.497 -43.3116L971.457 -38.7541L975.229 -34.2894L978.645 -30.152L981.921 -26.0752L985.142 -21.9623L988.336 -17.7795L991.591 -13.4121L994.832 -8.9218L998.188 -4.14296L1001.49 0.681056L1004.81 5.67959L1008 10.6346L1011.14 15.6789L1014.14 20.6405L1017.09 25.6472L1019.9 30.5788L1022.65 35.5252L1025.3 40.4121L1027.88 45.2862L1030.37 50.1229L1032.79 54.9337L1035.13 59.7146L1037.4 64.4613L1039.59 69.1961L1041.7 73.8926L1043.75 78.5895L1045.69 83.2179L1047.58 87.8426L1049.34 92.3146L1051.02 96.6678L1052.51 100.68L1053.85 104.437L1055.01 107.758L1056.11 111.035L1057.3 114.665Z" stroke="white" stroke-width="0.5" stroke-linecap="round" stroke-linejoin="round" shape-rendering="crispEdges"/>
</g>
<g filter="url(#filter2_dd_12_967)">
<path d="M1089.08 104.578L1090.38 108.686L1091.73 113.085L1093.06 117.526L1094.36 122.042L1095.6 126.499L1096.8 130.936L1097.92 135.296L1098.99 139.612L1100 143.875L1100.95 148.079L1101.85 152.239L1102.68 156.269L1103.46 160.192L1104.15 163.84L1104.77 167.261L1105.29 170.311L1105.76 173.278L1106.23 176.401L1106.69 179.665L1107.16 183.181L1107.61 186.771L1108.04 190.484L1108.43 194.186L1108.8 197.928L1109.12 201.66L1109.4 205.434L1109.65 209.23L1109.87 213.097L1110.04 217.021L1110.19 221.029L1110.31 225.05L1110.41 229.092L1110.47 232.991L1110.5 236.775L1110.5 240.267L1110.46 243.713L1110.37 247.284L1110.24 251.054L1110.04 255.236L1109.79 259.651L1109.48 264.329L1109.09 269.124L1108.65 274.05L1108.16 279.058L1107.61 284.105L1107.01 289.209L1106.38 294.238L1105.72 299.202L1105.08 303.858L1104.43 308.262L1103.82 312.236L1103.15 316.263L1102.37 320.824L1101.47 325.719L1100.46 331.042L1099.37 336.512L1098.18 342.185L1096.92 347.882L1095.57 353.665L1094.16 359.458L1092.66 365.296L1091.09 371.165L1089.45 377.059L1087.73 383.018L1085.96 388.981L1084.11 395.023L1082.23 401.054L1080.26 407.183L1078.25 413.283L1076.13 419.508L1073.95 425.709L1071.63 432.038L1069.21 438.326L1066.64 444.7L1064.02 450.879L1061.34 456.911L1058.83 462.368L1056.49 467.207L1054.58 471.045L1052.89 474.287L1051.13 477.55L1049.14 481.137L1047.02 484.842L1044.54 489.028L1041.53 493.995L1038.17 499.365L1034.43 505.2L1030.54 511.085L1026.42 517.11L1022.28 522.987L1017.98 528.896L1013.67 534.612L1009.22 540.344L1004.78 545.886L1000.18 551.451L995.588 556.845L990.843 562.242L986.105 567.483L981.217 572.722L976.339 577.8L971.311 582.876L966.317 587.774L961.192 592.658L956.155 597.322L951.067 601.907L946.183 606.18L941.378 610.285L936.855 614.037L932.461 617.585L928.237 620.89L923.913 624.164L919.14 627.65L914.148 631.184L908.819 634.818L903.433 638.35L897.879 641.837L892.369 645.156L886.779 648.379L881.262 651.432L875.694 654.386L870.216 657.192L864.713 659.942L859.298 662.569L853.894 665.15L848.586 667.651L843.303 670.121L838.113 672.525L832.964 674.901L827.89 677.241L822.877 679.553L817.905 681.837L813.013 684.08L808.176 686.29L803.492 688.414L798.928 690.46L794.686 692.339L790.703 694.061L787.144 695.558L783.66 696.967L779.954 698.394L776.064 699.826L771.867 701.303L767.574 702.735L763.148 704.134L758.744 705.453L754.339 706.699L749.976 707.865L745.655 708.949L741.373 709.977L737.163 710.93L732.993 711.837L728.972 712.673L725.073 713.451L721.477 714.136L718.138 714.75L715.184 715.27L712.286 715.747L709.093 716.253L705.73 716.758L702.135 717.273L698.481 717.773L694.747 718.25L691.026 718.702L687.297 719.121L683.579 719.505L679.831 719.862L676.061 720.192L672.225 720.484L668.323 720.747L664.327 720.984L660.27 721.187L656.128 721.363L652.022 721.497L647.942 721.6L644.097 721.669L640.439 721.699L637.089 721.703L633.679 721.673L629.803 721.599L625.623 721.482L621.085 721.321L616.373 721.112L611.487 720.844L606.519 720.525L601.453 720.141L596.299 719.692L591.097 719.183L585.826 718.607L580.659 717.984L575.605 717.332L571 716.691L566.862 716.08L563.45 715.546L560.319 715.017L556.864 714.384L552.789 713.583L548.187 712.622L542.967 711.469L537.463 710.174L531.68 708.723L525.84 707.159L519.91 705.458L513.982 703.649L508.033 701.716L502.062 699.673L496.081 697.524L490.024 695.256L483.964 692.904L477.788 690.436L471.632 687.913L465.387 685.306L459.304 682.738L453.365 680.192L448.008 677.88L443.283 675.827L439.598 674.207L436.527 672.848L433.418 671.448L429.845 669.825L426.002 668.053L421.602 665.988L416.359 663.467L410.701 660.675L404.599 657.57L398.469 654.34L392.2 650.904L386.092 647.406L379.939 643.717L373.975 639.974L367.983 636.044L362.17 632.061L356.332 627.885L350.656 623.676L344.956 619.285L339.429 614.87L333.87 610.292L328.484 605.71L323.087 600.973L317.859 596.237L312.614 591.352L307.546 586.482L302.479 581.461L297.591 576.473L292.721 571.368L288.094 566.369L283.556 561.338L279.343 556.538L275.305 551.806L271.575 547.335L268.032 542.961L264.658 538.693L261.3 534.333L257.725 529.553L254.1 524.588L250.37 519.335L246.715 514.057L243.074 508.656L239.575 503.312L236.148 497.913L232.869 492.594L229.664 487.239L226.596 481.956L223.61 476.652L220.734 471.407L217.946 466.154L215.263 460.947L212.669 455.751L210.163 450.577L207.743 445.43L205.399 440.277L203.146 435.165L200.955 430.033L198.867 424.98L196.865 419.964L195.01 415.208L193.313 410.72L191.884 406.856L190.697 403.584L189.804 401.055L189.126 399.095L188.485 397.167L187.676 394.665L186.591 391.263L185.363 387.3L184.021 382.889L182.684 378.348L181.374 373.731L180.119 369.187L178.936 364.696L177.817 360.287L176.763 355.95L175.767 351.662L174.829 347.452L173.939 343.281L173.11 339.261L172.344 335.366L171.661 331.776L171.056 328.431L170.541 325.488L170.069 322.579L169.568 319.386L169.074 316.028L168.56 312.428L168.066 308.774L167.595 305.04L167.154 301.323L166.745 297.588L166.372 293.865L166.031 290.116L165.725 286.334L165.458 282.486L165.225 278.577L165.033 274.567L164.881 270.52L164.762 266.402L164.683 262.354L164.638 258.371L164.633 254.638L164.653 251.043L164.701 247.606L164.784 244.064L164.904 240.077L165.065 235.81L165.272 231.224L165.517 226.489L165.807 221.604L166.144 216.643L166.529 211.605L166.971 206.49L167.462 201.336L168.016 196.109L168.61 190.952L169.241 185.835L169.886 181.019L170.549 176.424L171.191 172.278L171.888 168.107L172.728 163.474L173.668 158.521L174.762 153.124L175.954 147.558L177.259 141.774L178.648 135.944L180.141 130.024L181.712 124.106L183.391 118.136L185.15 112.145L187.01 106.131L188.968 100.074L191.013 94.0112L193.174 87.8848L195.429 81.775L197.808 75.5822L200.282 69.4156L202.902 63.1494L205.61 56.9295L208.47 50.6242L211.366 44.4568L214.343 38.3312L217.22 32.5975L220.003 27.1969L222.498 22.4949L224.847 18.2081L227.142 14.1101L229.383 10.2351L231.876 6.05288L234.871 1.16417L238.2 -4.14069L241.919 -9.91463L245.802 -15.7652L249.906 -21.7698L254.039 -27.641L258.331 -33.5398L262.614 -39.2388L267.028 -44.9437L271.434 -50.4489L275.979 -55.9703L280.546 -61.348L285.335 -66.7972L290.277 -72.2251L295.615 -77.909L301.287 -83.7321L307.442 -89.8718L313.68 -95.9066L319.501 -101.378L325.023 -106.412L330.063 -110.857L334.863 -114.967L339.321 -118.685L343.655 -122.193L347.873 -125.522L352.202 -128.845L356.959 -132.408L361.915 -136.026L367.163 -139.765L372.446 -143.429L377.855 -147.084L383.204 -150.594L388.607 -154.03L393.934 -157.324L399.288 -160.533L404.579 -163.615L409.886 -166.611L415.14 -169.491L420.386 -172.288L425.607 -174.98L430.8 -177.588L435.976 -180.103L441.121 -182.527L446.277 -184.88L451.391 -187.141L456.525 -189.341L461.585 -191.433L466.603 -193.454L471.361 -195.317L475.85 -197.022L479.711 -198.452L482.984 -199.644L485.519 -200.547L487.474 -201.223L489.407 -201.873L491.91 -202.686L495.313 -203.777L499.273 -205.006L503.688 -206.361L508.231 -207.706L512.849 -209.023L517.389 -210.281L521.885 -211.477L526.29 -212.597L530.633 -213.654L534.916 -214.662L539.137 -215.607L543.303 -216.509L547.324 -217.335L551.218 -218.117L554.809 -218.797L558.148 -219.412L561.102 -219.932L564.005 -220.414L567.194 -220.914L570.556 -221.419L574.151 -221.934L577.806 -222.434L581.544 -222.917L585.261 -223.364L588.99 -223.782L592.711 -224.171L596.455 -224.533L600.226 -224.853L604.066 -225.15L607.963 -225.418L611.964 -225.65L616.021 -225.853L620.159 -226.024L624.265 -226.159L628.345 -226.261L632.189 -226.33L635.852 -226.365L639.202 -226.369L642.608 -226.334L646.483 -226.26L650.658 -226.147L655.201 -225.982L659.904 -225.772L664.789 -225.514L669.763 -225.191L674.838 -224.808L680.007 -224.355L685.248 -223.839L690.572 -223.263L695.813 -222.641L700.905 -221.982L705.481 -221.359L709.415 -220.794L712.309 -220.367L714.543 -220.008L716.807 -219.621L719.734 -219.095L723.519 -218.387L727.999 -217.503L733.203 -216.436L738.732 -215.245L744.563 -213.924L750.439 -212.519L756.412 -211.006L762.366 -209.418L768.362 -207.732L774.351 -205.962L780.372 -204.093L786.419 -202.129L792.484 -200.07L798.598 -197.898L804.708 -195.638L810.893 -193.244L817.05 -190.765L823.312 -188.134L829.527 -185.426L835.827 -182.566L841.999 -179.66L848.134 -176.669L853.913 -173.766L859.371 -170.938L864.169 -168.39L868.538 -166.002L872.642 -163.693L876.513 -161.448L880.67 -158.969L885.467 -156.029L890.668 -152.762L896.358 -149.088L902.151 -145.239L908.128 -141.143L913.982 -137.007L919.869 -132.699L925.577 -128.391L931.292 -123.933L936.819 -119.465L942.357 -114.851L947.721 -110.233L953.083 -105.465L958.279 -100.692L963.483 -95.7698L968.516 -90.8575L973.552 -85.7901L978.416 -80.7523L983.266 -75.5821L987.905 -70.5014L992.47 -65.3758L996.73 -60.4727L1000.79 -55.6696L1004.46 -51.2185L1007.99 -46.8326L1011.45 -42.4079L1014.89 -37.908L1018.39 -33.2094L1021.88 -28.3787L1025.49 -23.2375L1029.04 -18.0478L1032.61 -12.6703L1036.04 -7.33956L1039.42 -1.91286L1042.65 3.4249L1045.82 8.81123L1048.85 14.1167L1051.81 19.4381L1054.65 24.6955L1057.43 29.9391L1060.11 35.1425L1062.71 40.3181L1065.23 45.4614L1067.67 50.568L1070.03 55.6618L1072.3 60.7144L1074.5 65.7674L1076.6 70.7467L1078.62 75.722L1080.52 80.5331L1082.32 85.2163L1083.92 89.5324L1085.37 93.5745L1086.62 97.1478L1087.8 100.672L1089.08 104.578Z" stroke="white" stroke-width="0.5" stroke-linecap="round" stroke-linejoin="round" shape-rendering="crispEdges"/>
</g>
<path d="M809.438 -24.3772L811.914 -22.8256L814.544 -21.144L817.178 -19.4298L819.83 -17.6645L822.432 -15.9086L824.997 -14.1387L827.492 -12.378L829.94 -10.6174L832.333 -8.85681L834.671 -7.10082L836.962 -5.34483L839.16 -3.62604L841.284 -1.93974L843.241 -0.355626L845.063 1.14019L846.673 2.48738L848.217 3.81597L849.831 5.22355L851.5 6.71007L853.286 8.32208L855.095 9.98048L856.95 11.7086L858.777 13.4506L860.609 15.2252L862.413 17.0137L864.217 18.8393L866.011 20.6929L867.82 22.5975L869.633 24.5486L871.47 26.5554L873.297 28.5808L875.12 30.6294L876.863 32.6177L878.542 34.5595L880.072 36.3666L881.566 38.1644L883.087 40.0504L884.673 42.0573L886.407 44.3057L888.216 46.6981L890.108 49.2531L892.014 51.9009L893.948 54.6418L895.891 57.4476L897.825 60.2953L899.754 63.1987L901.637 66.0742L903.474 68.9311L905.185 71.6208L906.785 74.1805L908.213 76.5032L909.637 78.877L911.232 81.5807L912.92 84.5027L914.734 87.6987L916.57 91.0063L918.444 94.4625L920.294 97.9605L922.135 101.542L923.948 105.156L925.739 108.831L927.501 112.556L929.24 116.324L930.97 120.156L932.672 124.017L934.369 127.951L936.043 131.895L937.717 135.928L939.355 139.965L940.992 144.113L942.587 148.275L944.164 152.568L945.676 156.879L947.141 161.306L948.5 165.649L949.766 169.942L950.86 173.867L951.779 177.393L952.474 180.217L953.026 182.633L953.545 185.095L954.093 187.822L954.621 190.67L955.178 193.921L955.804 197.81L956.425 202.06L957.051 206.72L957.622 211.472L958.141 216.391L958.577 221.25L958.948 226.193L959.231 231.038L959.449 235.953L959.584 240.771L959.649 245.667L959.644 250.47L959.56 255.343L959.412 260.133L959.185 264.987L958.893 269.754L958.522 274.585L958.09 279.309L957.585 284.085L957.028 288.707L956.411 293.311L955.762 297.663L955.08 301.895L954.39 305.821L953.675 309.584L952.943 313.147L952.145 316.738L951.208 320.635L950.179 324.653L949.019 328.871L947.786 333.062L946.445 337.303L945.054 341.437L943.579 345.558L942.068 349.558L940.486 353.529L938.886 357.385L937.249 361.222L935.603 364.957L933.942 368.664L932.296 372.288L930.65 375.883L929.022 379.405L927.404 382.893L925.808 386.331L924.231 389.727L922.664 393.09L921.12 396.398L919.589 399.663L918.101 402.818L916.64 405.879L915.272 408.713L913.969 411.351L912.786 413.688L911.603 415.946L910.314 418.31L908.932 420.758L907.411 423.364L905.82 425.989L904.146 428.656L902.449 431.271L900.719 433.849L898.975 436.367L897.218 438.824L895.455 441.235L893.698 443.577L891.94 445.876L890.229 448.073L888.555 450.187L886.996 452.12L885.54 453.904L884.242 455.469L882.952 456.988L881.524 458.651L880.008 460.389L878.375 462.233L876.706 464.096L874.985 465.982L873.26 467.849L871.516 469.703L869.763 471.533L867.982 473.363L866.178 475.189L864.323 477.024L862.422 478.873L860.46 480.75L858.452 482.636L856.388 484.545L854.325 486.417L852.261 488.261L850.304 489.985L848.426 491.606L846.696 493.079L844.92 494.56L842.884 496.223L840.672 497.998L838.256 499.907L835.728 501.868L833.085 503.875L830.376 505.891L827.589 507.916L824.728 509.946L821.815 511.967L818.838 513.983L815.893 515.929L812.995 517.811L810.333 519.502L807.926 521.002L805.927 522.224L804.077 523.325L802.013 524.514L799.555 525.889L796.754 527.413L793.549 529.109L790.136 530.855L786.51 532.644L782.804 534.4L778.992 536.123L775.134 537.791L771.21 539.403L767.227 540.968L763.192 542.483L759.064 543.969L754.9 545.414L750.624 546.85L746.334 548.248L741.961 549.641L737.69 550.984L733.502 552.275L729.718 553.432L726.374 554.445L723.759 555.225L721.574 555.871L719.353 556.512L716.793 557.241L714.029 558.013L710.848 558.877L707.031 559.875L702.88 560.916L698.363 561.989L693.777 563.011L689.028 563.987L684.335 564.86L679.535 565.654L674.809 566.337L669.986 566.936L665.233 567.429L660.382 567.833L655.6 568.149L650.726 568.381L645.931 568.525L641.048 568.599L636.252 568.595L631.383 568.516L626.602 568.363L621.746 568.14L616.988 567.847L612.165 567.475L607.448 567.043L602.69 566.542L598.104 565.989L593.55 565.38L589.265 564.748L585.1 564.075L581.209 563.401L577.457 562.695L573.84 561.97L570.19 561.19L566.244 560.289L562.19 559.313L557.956 558.235L553.75 557.111L549.497 555.917L545.342 554.691L541.201 553.404L537.171 552.094L533.164 550.733L529.259 549.349L525.387 547.918L521.598 546.469L517.851 544.977L514.178 543.463L510.556 541.916L506.989 540.341L503.479 538.743L500.005 537.108L496.597 535.454L493.211 533.763L489.914 532.068L486.677 530.354L483.63 528.709L480.783 527.134L478.348 525.764L476.298 524.593L474.726 523.678L473.515 522.963L472.338 522.247L470.821 521.309L468.767 520.027L466.392 518.517L463.763 516.826L461.078 515.065L458.374 513.254L455.73 511.456L453.147 509.653L450.634 507.865L448.185 506.086L445.787 504.307L443.455 502.541L441.164 500.776L438.97 499.062L436.865 497.385L434.936 495.829L433.155 494.365L431.597 493.069L430.075 491.773L428.415 490.342L426.685 488.823L424.84 487.188L422.98 485.516L421.097 483.792L419.237 482.064L417.387 480.313L415.56 478.552L413.737 476.764L411.919 474.943L410.092 473.071L408.256 471.152L406.396 469.164L404.541 467.138L402.672 465.062L400.854 463.004L399.083 460.965L397.441 459.037L395.873 457.169L394.389 455.371L392.877 453.504L391.189 451.39L389.399 449.114L387.493 446.652L385.541 444.097L383.547 441.444L381.543 438.732L379.531 435.958L377.513 433.12L375.505 430.24L373.497 427.294L371.54 424.368L369.62 421.446L367.839 418.672L366.165 416.006L364.676 413.581L363.206 411.119L361.606 408.355L359.918 405.382L358.114 402.112L356.287 398.711L354.423 395.148L352.582 391.525L350.754 387.808L348.969 384.059L347.216 380.236L345.495 376.366L343.817 372.441L342.17 368.451L340.566 364.418L338.994 360.303L337.477 356.154L335.988 351.908L334.56 347.634L333.164 343.244L331.833 338.841L330.544 334.325L329.334 329.866L328.183 325.392L327.154 321.165L326.222 317.151L325.447 313.625L324.779 310.378L324.167 307.252L323.625 304.265L323.077 301.008L322.479 297.166L321.872 292.962L321.259 288.345L320.698 283.616L320.184 278.71L319.743 273.86L319.372 268.927L319.084 264.1L318.862 259.213L318.723 254.433L318.649 249.583L318.649 244.798L318.732 239.879L318.904 234.903L319.168 229.622L319.544 224.121L320.031 218.245L320.606 212.387L321.213 207.003L321.858 201.977L322.512 197.466L323.189 193.234L323.861 189.355L324.561 185.639L325.28 182.066L326.059 178.447L326.954 174.517L327.928 170.471L329 166.235L330.122 162.021L331.314 157.757L332.538 153.594L333.823 149.446L335.13 145.404L336.489 141.395L337.871 137.479L339.3 133.6L340.751 129.805L342.235 126.056L343.752 122.372L345.291 118.744L346.864 115.172L348.459 111.66L350.091 108.18L351.742 104.766L353.43 101.375L355.128 98.072L356.834 94.8248L358.476 91.7728L360.048 88.9205L361.416 86.4862L362.585 84.433L363.498 82.8535L364.213 81.6457L364.927 80.4611L365.864 78.9421L367.144 76.8842L368.651 74.5103L370.339 71.8717L372.097 69.182L373.905 66.4737L375.7 63.8305L377.499 61.2383L379.285 58.7251L381.066 56.2723L382.837 53.8706L384.604 51.5293L386.362 49.2345L388.078 47.0418L389.747 44.9281L391.305 43.0003L392.762 41.2164L394.06 39.6509L395.349 38.1272L396.778 36.4688L398.294 34.7314L399.927 32.8872L401.596 31.0244L403.317 29.1336L405.042 27.2708L406.786 25.4173L408.539 23.5824L410.315 21.752L412.123 19.9311L413.978 18.0914L415.875 16.2425L417.841 14.3658L419.85 12.4797L421.913 10.5751L423.977 8.703L426.041 6.85877L427.998 5.13528L429.876 3.50937L431.606 2.0368L433.382 0.559527L435.418 -1.10352L437.625 -2.87811L440.046 -4.78738L442.569 -6.74309L445.208 -8.75455L447.921 -10.7707L450.713 -12.8008L453.583 -14.8355L456.519 -16.8702L459.524 -18.9095L462.506 -20.8884L465.428 -22.7838L468.066 -24.4701L470.348 -25.9055L472.031 -26.9554L473.344 -27.7498L474.684 -28.5442L476.428 -29.5569L478.696 -30.8529L481.399 -32.3627L484.558 -34.0955L487.938 -35.9072L491.532 -37.7839L495.187 -39.6375L498.939 -41.4771L502.714 -43.2702L506.554 -45.0308L510.426 -46.745L514.359 -48.422L518.347 -50.0618L522.386 -51.6598L526.5 -53.2208L530.65 -54.7352L534.898 -56.2124L539.17 -57.6339L543.561 -59.0229L547.962 -60.3515L552.475 -61.6383L556.941 -62.8461L561.425 -63.9935L565.687 -65.0294L569.75 -65.9632L573.348 -66.7529L576.655 -67.4358L579.79 -68.0443L582.777 -68.5832L586.014 -69.1268L589.784 -69.7121L593.907 -70.3067L598.461 -70.9059L603.145 -71.4588L608.033 -71.9651L612.874 -72.3971L617.809 -72.7548L622.65 -73.0335L627.562 -73.238L632.38 -73.3541L637.268 -73.4005L642.068 -73.368L646.933 -73.2566L651.714 -73.0707L656.565 -72.8106L661.323 -72.4807L666.151 -72.0719L670.876 -71.6028L675.653 -71.0592L680.281 -70.4693L684.891 -69.8236L689.246 -69.1592L693.452 -68.4578L697.306 -67.7703L701.053 -67.0502L704.786 -66.2837L708.538 -65.4661L712.411 -64.5742L716.334 -63.608L720.457 -62.5348L724.57 -61.4107L728.776 -60.1982L732.89 -58.9486L737.022 -57.6293L741.034 -56.2867L745.036 -54.8931L748.931 -53.4809L752.794 -52.0269L756.574 -50.5589L760.312 -49.0677L763.98 -47.5533L767.598 -46.0203L771.159 -44.4687L774.661 -42.8986L778.116 -41.3006L781.506 -39.6839L784.863 -38.0394L788.133 -36.3857L791.365 -34.704L794.458 -33.0502L797.445 -31.4197L800.167 -29.8913L802.69 -28.4373L804.902 -27.1366L807.063 -25.8359L809.438 -24.3772Z" stroke="#151515" stroke-width="0.5" stroke-linecap="round" stroke-linejoin="round"/>
<path opacity="0.5" d="M966.013 172.456L966.696 175.433L967.397 178.62L968.077 181.833L968.733 185.098L969.358 188.319L969.946 191.523L970.488 194.668L970.997 197.779L971.464 200.849L971.894 203.874L972.29 206.865L972.644 209.76L972.968 212.576L973.243 215.193L973.485 217.646L973.679 219.831L973.838 221.954L973.991 224.187L974.126 226.52L974.254 229.031L974.366 231.593L974.459 234.241L974.522 236.879L974.565 239.545L974.576 242.2L974.561 244.882L974.517 247.579L974.446 250.323L974.345 253.105L974.219 255.946L974.072 258.793L973.905 261.654L973.725 264.412L973.53 267.088L973.326 269.555L973.101 271.987L972.831 274.505L972.521 277.161L972.141 280.104L971.71 283.209L971.22 286.496L970.672 289.862L970.075 293.316L969.438 296.826L968.763 300.36L968.043 303.932L967.309 307.449L966.555 310.917L965.832 314.17L965.123 317.244L964.462 320.016L963.76 322.823L962.941 326L962.029 329.407L961.007 333.11L959.92 336.912L958.751 340.851L957.533 344.803L956.247 348.811L954.916 352.822L953.523 356.861L952.072 360.917L950.573 364.987L949.019 369.098L947.424 373.208L945.771 377.371L944.094 381.523L942.351 385.74L940.577 389.934L938.722 394.21L936.824 398.465L934.818 402.803L932.749 407.106L930.56 411.461L928.355 415.675L926.118 419.783L924.026 423.493L922.099 426.778L920.525 429.379L919.148 431.572L917.712 433.776L916.102 436.196L914.388 438.691L912.396 441.506L909.985 444.842L907.303 448.443L904.322 452.349L901.232 456.283L897.98 460.302L894.711 464.216L891.332 468.143L887.96 471.933L884.489 475.726L881.028 479.386L877.458 483.052L873.904 486.599L870.241 490.138L866.592 493.568L862.836 496.988L859.098 500.295L855.253 503.591L851.443 506.764L847.54 509.92L843.712 512.924L839.854 515.871L836.157 518.608L832.526 521.231L829.114 523.622L825.805 525.875L822.631 527.967L819.387 530.031L815.814 532.219L812.084 534.428L808.109 536.688L804.101 538.873L799.976 541.017L795.892 543.044L791.757 545L787.683 546.838L783.579 548.605L779.547 550.272L775.501 551.898L771.524 553.441L767.557 554.954L763.663 556.415L759.789 557.855L755.983 559.255L752.209 560.637L748.489 561.998L744.814 563.343L741.17 564.67L737.584 565.973L734.039 567.255L730.608 568.486L727.266 569.669L724.16 570.752L721.247 571.739L718.646 572.592L716.103 573.386L713.403 574.181L710.572 574.969L707.522 575.77L704.407 576.535L701.199 577.268L698.011 577.946L694.827 578.573L691.678 579.145L688.562 579.662L685.478 580.142L682.449 580.573L679.45 580.973L676.562 581.332L673.762 581.657L671.182 581.934L668.788 582.176L666.671 582.373L664.595 582.543L662.31 582.716L659.906 582.879L657.336 583.036L654.725 583.179L652.06 583.301L649.405 583.406L646.746 583.487L644.098 583.544L641.429 583.58L638.746 583.596L636.019 583.581L633.247 583.543L630.411 583.48L627.532 583.389L624.596 583.275L621.687 583.133L618.799 582.971L616.079 582.798L613.492 582.608L611.126 582.418L608.718 582.201L605.984 581.925L603.037 581.601L599.841 581.227L596.524 580.807L593.087 580.337L589.595 579.825L586.038 579.262L582.423 578.648L578.777 577.988L575.087 577.278L571.471 576.54L567.939 575.788L564.722 575.07L561.834 574.4L559.454 573.826L557.272 573.272L554.868 572.626L552.035 571.825L548.839 570.881L545.217 569.766L541.404 568.534L537.401 567.175L533.365 565.734L529.274 564.19L525.19 562.571L521.098 560.863L516.997 559.075L512.896 557.213L508.747 555.261L504.601 553.25L500.38 551.151L496.176 549.014L491.914 546.812L487.765 544.647L483.715 542.506L480.063 540.564L476.844 538.841L474.334 537.485L472.242 536.348L470.126 535.18L467.695 533.827L465.083 532.354L462.093 530.641L458.534 528.558L454.697 526.259L450.565 523.714L446.42 521.079L442.189 518.291L438.075 515.467L433.94 512.507L429.943 509.519L425.935 506.397L422.058 503.247L418.174 499.961L414.407 496.66L410.633 493.23L406.982 489.792L403.318 486.238L399.777 482.69L396.237 479.033L392.816 475.386L389.392 471.632L386.092 467.899L382.802 464.06L379.635 460.254L376.489 456.367L373.508 452.568L370.591 448.753L367.891 445.119L365.311 441.543L362.933 438.169L360.682 434.875L358.544 431.665L356.423 428.391L354.172 424.808L351.898 421.091L349.565 417.166L347.287 413.226L345.026 409.2L342.861 405.223L340.751 401.211L338.741 397.264L336.785 393.297L334.922 389.388L333.118 385.468L331.389 381.597L329.721 377.725L328.126 373.891L326.592 370.071L325.12 366.271L323.706 362.496L322.348 358.72L321.05 354.978L319.798 351.227L318.614 347.536L317.488 343.877L316.452 340.41L315.511 337.141L314.724 334.329L314.075 331.949L313.589 330.111L313.223 328.687L312.881 327.288L312.454 325.474L311.883 323.008L311.244 320.137L310.55 316.944L309.867 313.658L309.207 310.321L308.582 307.038L308.005 303.797L307.469 300.617L306.974 297.493L306.517 294.406L306.098 291.377L305.709 288.379L305.355 285.491L305.038 282.696L304.762 280.12L304.527 277.722L304.334 275.612L304.167 273.53L303.997 271.246L303.842 268.845L303.686 266.272L303.547 263.661L303.429 260.996L303.332 258.345L303.259 255.683L303.21 253.031L303.184 250.362L303.187 247.673L303.22 244.939L303.28 242.163L303.375 239.319L303.501 236.452L303.654 233.536L303.832 230.671L304.029 227.854L304.241 225.216L304.462 222.678L304.694 220.252L304.957 217.755L305.271 214.945L305.631 211.94L306.041 208.711L306.487 205.38L306.973 201.946L307.497 198.46L308.059 194.923L308.666 191.334L309.311 187.721L310.003 184.06L310.72 180.451L311.46 176.873L312.193 173.507L312.927 170.299L313.619 167.406L314.352 164.5L315.212 161.275L316.161 157.83L317.245 154.08L318.408 150.216L319.663 146.205L320.98 142.166L322.376 138.069L323.827 133.979L325.357 129.858L326.945 125.726L328.606 121.584L330.338 117.419L332.132 113.253L334.012 109.049L335.957 104.862L337.995 100.624L340.097 96.4097L342.31 92.1336L344.581 87.8952L346.965 83.6052L349.366 79.4147L351.823 75.2585L354.186 71.3734L356.463 67.7181L358.497 64.5399L360.403 61.6465L362.261 58.8835L364.067 56.275L366.07 53.4638L368.467 50.1824L371.125 46.6263L374.085 42.7613L377.165 38.8515L380.41 34.8456L383.669 30.9357L387.041 27.0155L390.395 23.2359L393.842 19.4596L397.272 15.824L400.802 12.1849L404.338 8.64869L408.036 5.07464L411.839 1.52449L415.938 -2.18369L420.281 -5.97097L424.984 -9.95406L429.738 -13.8583L434.166 -17.3884L438.357 -20.6267L442.174 -23.477L445.802 -26.1042L449.166 -28.4739L452.43 -30.7029L455.602 -32.8118L458.852 -34.9104L462.418 -37.1534L466.128 -39.4239L470.051 -41.7632L473.994 -44.0476L478.027 -46.3184L482.008 -48.4897L486.023 -50.6061L489.977 -52.6264L493.944 -54.5849L497.859 -56.4577L501.782 -58.2687L505.66 -60.0008L509.527 -61.6746L513.37 -63.2763L517.19 -64.8196L520.992 -66.2978L524.766 -67.7142L528.544 -69.0791L532.288 -70.3823L536.042 -71.6409L539.737 -72.8274L543.399 -73.9658L546.868 -75.0081L550.137 -75.9541L552.948 -76.742L555.329 -77.3957L557.171 -77.8877L558.592 -78.2525L559.995 -78.6001L561.81 -79.0304L564.277 -79.6053L567.146 -80.2457L570.343 -80.9481L573.63 -81.6369L576.968 -82.3016L580.248 -82.9286L583.494 -83.5145L586.671 -84.0522L589.8 -84.5487L592.884 -85.0143L595.921 -85.4388L598.916 -85.8357L601.804 -86.1879L604.6 -86.5161L607.177 -86.7892L609.571 -87.0313L611.688 -87.2285L613.767 -87.4018L616.049 -87.5717L618.453 -87.7349L621.023 -87.8913L623.633 -88.0341L626.302 -88.1598L628.954 -88.2614L631.613 -88.3425L634.265 -88.403L636.93 -88.4429L639.613 -88.4519L642.343 -88.4404L645.112 -88.405L647.952 -88.3387L650.83 -88.2484L653.763 -88.1307L656.672 -87.989L659.56 -87.8267L662.28 -87.654L664.87 -87.4674L667.237 -87.2772L669.641 -87.0562L672.375 -86.7806L675.318 -86.4605L678.518 -86.0823L681.828 -85.6631L685.265 -85.1993L688.761 -84.6842L692.324 -84.1211L695.95 -83.5031L699.623 -82.8372L703.351 -82.1233L707.018 -81.3818L710.578 -80.6232L713.775 -79.9192L716.522 -79.2936L718.542 -78.8253L720.099 -78.4424L721.677 -78.0389L723.714 -77.4985L726.348 -76.7803L729.462 -75.8978L733.077 -74.8442L736.914 -73.6844L740.958 -72.415L745.029 -71.0839L749.161 -69.6705L753.276 -68.2056L757.416 -66.6687L761.545 -65.0735L765.691 -63.4063L769.85 -61.6705L774.017 -59.866L778.211 -57.9793L782.398 -56.0308L786.629 -53.9829L790.836 -51.8766L795.109 -49.6572L799.344 -47.3863L803.63 -45.0022L807.823 -42.594L811.986 -40.1275L815.901 -37.7431L819.594 -35.4306L822.837 -33.3545L825.786 -31.4152L828.553 -29.5479L831.158 -27.7388L833.952 -25.748L837.172 -23.3939L840.658 -20.7862L844.467 -17.8632L848.338 -14.8099L852.324 -11.5714L856.222 -8.31222L860.134 -4.92959L863.918 -1.55715L867.699 1.9216L871.346 5.39707L874.993 8.97547L878.517 12.5471L882.03 16.225L885.426 19.8962L888.819 23.6738L892.092 27.4343L895.358 31.3045L898.504 35.144L901.633 39.0762L904.618 42.9329L907.548 46.8172L910.275 50.5267L912.866 54.1539L915.206 57.5104L917.443 60.8121L919.636 64.1377L921.805 67.5149L924.008 71.0362L926.193 74.65L928.447 78.4903L930.657 82.3614L932.87 86.3663L934.986 90.3301L937.065 94.3592L939.038 98.3163L940.966 102.304L942.802 106.227L944.582 110.157L946.291 114.035L947.951 117.9L949.543 121.731L951.084 125.537L952.57 129.316L953.997 133.064L955.37 136.799L956.681 140.499L957.947 144.196L959.141 147.835L960.287 151.467L961.351 154.975L962.354 158.388L963.236 161.529L964.026 164.468L964.7 167.065L965.336 169.623L966.013 172.456Z" stroke="#151515" stroke-width="0.5" stroke-linecap="round" stroke-linejoin="round"/>
</g>
<defs>
<filter id="filter0_dd_12_967" x="261.643" y="-129.219" width="752.093" height="753.793" filterUnits="userSpaceOnUse" color-interpolation-filters="sRGB">
<feFlood flood-opacity="0" result="BackgroundImageFix"/>
<feColorMatrix in="SourceAlpha" type="matrix" values="0 0 0 0 0 0 0 0 0 0 0 0 0 0 0 0 0 0 127 0" result="hardAlpha"/>
<feOffset/>
<feGaussianBlur stdDeviation="5.5"/>
<feComposite in2="hardAlpha" operator="out"/>
<feColorMatrix type="matrix" values="0 0 0 0 0.533333 0 0 0 0 0.174222 0 0 0 0 0 0 0 0 1 0"/>
<feBlend mode="normal" in2="BackgroundImageFix" result="effect1_dropShadow_12_967"/>
<feColorMatrix in="SourceAlpha" type="matrix" values="0 0 0 0 0 0 0 0 0 0 0 0 0 0 0 0 0 0 127 0" result="hardAlpha"/>
<feOffset/>
<feGaussianBlur stdDeviation="5.5"/>
<feComposite in2="hardAlpha" operator="out"/>
<feColorMatrix type="matrix" values="0 0 0 0 0.533333 0 0 0 0 0.174222 0 0 0 0 0 0 0 0 1 0"/>
<feBlend mode="normal" in2="effect1_dropShadow_12_967" result="effect2_dropShadow_12_967"/>
<feBlend mode="normal" in="SourceGraphic" in2="effect2_dropShadow_12_967" result="shape"/>
</filter>
<filter id="filter1_dd_12_967" x="186.75" y="-204.209" width="901.71" height="903.758" filterUnits="userSpaceOnUse" color-interpolation-filters="sRGB">
<feFlood flood-opacity="0" result="BackgroundImageFix"/>
<feColorMatrix in="SourceAlpha" type="matrix" values="0 0 0 0 0 0 0 0 0 0 0 0 0 0 0 0 0 0 127 0" result="hardAlpha"/>
<feOffset/>
<feGaussianBlur stdDeviation="5.5"/>
<feComposite in2="hardAlpha" operator="out"/>
<feColorMatrix type="matrix" values="0 0 0 0 0.533333 0 0 0 0 0.174222 0 0 0 0 0 0 0 0 1 0"/>
<feBlend mode="normal" in2="BackgroundImageFix" result="effect1_dropShadow_12_967"/>
<feColorMatrix in="SourceAlpha" type="matrix" values="0 0 0 0 0 0 0 0 0 0 0 0 0 0 0 0 0 0 127 0" result="hardAlpha"/>
<feOffset/>
<feGaussianBlur stdDeviation="5.5"/>
<feComposite in2="hardAlpha" operator="out"/>
<feColorMatrix type="matrix" values="0 0 0 0 0.533333 0 0 0 0 0.174222 0 0 0 0 0 0 0 0 1 0"/>
<feBlend mode="normal" in2="effect1_dropShadow_12_967" result="effect2_dropShadow_12_967"/>
<feBlend mode="normal" in="SourceGraphic" in2="effect2_dropShadow_12_967" result="shape"/>
</filter>
<filter id="filter2_dd_12_967" x="153.383" y="-237.619" width="968.369" height="970.572" filterUnits="userSpaceOnUse" color-interpolation-filters="sRGB">
<feFlood flood-opacity="0" result="BackgroundImageFix"/>
<feColorMatrix in="SourceAlpha" type="matrix" values="0 0 0 0 0 0 0 0 0 0 0 0 0 0 0 0 0 0 127 0" result="hardAlpha"/>
<feOffset/>
<feGaussianBlur stdDeviation="5.5"/>
<feComposite in2="hardAlpha" operator="out"/>
<feColorMatrix type="matrix" values="0 0 0 0 0.533333 0 0 0 0 0.174222 0 0 0 0 0 0 0 0 1 0"/>
<feBlend mode="normal" in2="BackgroundImageFix" result="effect1_dropShadow_12_967"/>
<feColorMatrix in="SourceAlpha" type="matrix" values="0 0 0 0 0 0 0 0 0 0 0 0 0 0 0 0 0 0 127 0" result="hardAlpha"/>
<feOffset/>
<feGaussianBlur stdDeviation="5.5"/>
<feComposite in2="hardAlpha" operator="out"/>
<feColorMatrix type="matrix" values="0 0 0 0 0.533333 0 0 0 0 0.174222 0 0 0 0 0 0 0 0 1 0"/>
<feBlend mode="normal" in2="effect1_dropShadow_12_967" result="effect2_dropShadow_12_967"/>
<feBlend mode="normal" in="SourceGraphic" in2="effect2_dropShadow_12_967" result="shape"/>
</filter>
<linearGradient id="paint0_linear_12_967" x1="625.172" y1="104.704" x2="625.172" y2="521.704" gradientUnits="userSpaceOnUse">
<stop stop-color="#D9D9D9" stop-opacity="0"/>
<stop offset="0.473958" stop-color="#D9D9D9"/>
<stop offset="1" stop-color="#D9D9D9" stop-opacity="0"/>
</linearGradient>
</defs>
</svg>
